<svg width="56" height="56" viewBox="0 0 56 56" fill="none" xmlns="http://www.w3.org/2000/svg">
<path d="M22.8148 43.5556C25.677 43.5556 28 41.2326 28 38.3704V33.1852H22.8148C19.9526 33.1852 17.6296 35.5082 17.6296 38.3704C17.6296 41.2326 19.9526 43.5556 22.8148 43.5556Z" fill="#0ACF83" style="fill:#0ACF83;fill:color(display-p3 0.0392 0.8118 0.5137);fill-opacity:1;"/>
<path d="M17.6296 28C17.6296 25.1377 19.9526 22.8148 22.8148 22.8148H28V33.1851H22.8148C19.9526 33.1851 17.6296 30.8622 17.6296 28Z" fill="#A259FF" style="fill:#A259FF;fill:color(display-p3 0.6353 0.3490 1.0000);fill-opacity:1;"/>
<path d="M17.6296 17.6296C17.6296 14.7674 19.9526 12.4445 22.8148 12.4445H28V22.8148H22.8148C19.9526 22.8148 17.6296 20.4919 17.6296 17.6296Z" fill="#F24E1E" style="fill:#F24E1E;fill:color(display-p3 0.9490 0.3059 0.1176);fill-opacity:1;"/>
<path d="M28 12.4445H33.1852C36.0474 12.4445 38.3704 14.7674 38.3704 17.6296C38.3704 20.4919 36.0474 22.8148 33.1852 22.8148H28V12.4445Z" fill="#FF7262" style="fill:#FF7262;fill:color(display-p3 1.0000 0.4471 0.3843);fill-opacity:1;"/>
<path d="M38.3704 28C38.3704 30.8622 36.0474 33.1851 33.1852 33.1851C30.323 33.1851 28 30.8622 28 28C28 25.1377 30.323 22.8148 33.1852 22.8148C36.0474 22.8148 38.3704 25.1377 38.3704 28Z" fill="#1ABCFE" style="fill:#1ABCFE;fill:color(display-p3 0.1020 0.7373 0.9961);fill-opacity:1;"/>
</svg>
